<svg xmlns="http://www.w3.org/2000/svg" viewBox="0 0 240 171.85"><defs><style>.cls-1{fill:#b9cc01;}</style></defs><title>Recurso 11</title><g id="Capa_2" data-name="Capa 2"><g id="Capa_1-2" data-name="Capa 1"><path class="cls-1" d="M79.77,143.85a43,43,0,0,0,40.16,28h.14a43,43,0,0,0,40.17-28Z"></path><path class="cls-1" d="M65,143.85H.18v28H82.6a57.06,57.06,0,0,1-17.56-28"></path><path class="cls-1" d="M175,143.85a57.06,57.06,0,0,1-17.56,28h82.42v-28H175Z"></path><path class="cls-1" d="M240,129.8v-30H175.46a57,57,0,0,1-18.06,30Z"></path><path class="cls-1" d="M82.6,129.8a57,57,0,0,1-18.06-30H0v30Z"></path><path class="cls-1" d="M79.1,99.85a42.9,42.9,0,0,0,81.8,0Z"></path><path class="cls-1" d="M46.52,49.93h-14v-14h14ZM0,85.81H82.6A56.86,56.86,0,0,1,82.6,0H0Z"></path><path class="cls-1" d="M193.48,35.88h14v14h-14ZM177,42.9A56.84,56.84,0,0,1,157.4,85.81H240V0H157.4A56.84,56.84,0,0,1,177,42.9"></path><path class="cls-1" d="M124.87,70.64h-8.32V64.39c-5.9-.36-11.63-2-15.17-4.14l4.49-10.15a28.21,28.21,0,0,0,13.63,3.78c4,0,5.37-.83,5.37-2.24,0-5.19-22.84-1-22.84-16.41,0-6.67,4.84-12.27,14.52-13.63V15.17h8.32v6.31a30.6,30.6,0,0,1,12,3.43L132.66,35a25.54,25.54,0,0,0-11.51-3.06c-4.07,0-5.37,1.18-5.37,2.59,0,5,22.84.83,22.84,16.06,0,6.37-4.6,11.92-13.75,13.51ZM120,0a42.91,42.91,0,1,0,42.9,42.9A42.95,42.95,0,0,0,120,0"></path></g></g></svg>