<svg xmlns="http://www.w3.org/2000/svg" id="Capa_1" data-name="Capa 1" viewBox="0 0 450 450"><defs><style>.cls-1{fill:#132032;}</style></defs><title>home 2</title><path class="cls-1" d="M394.29,62.62H55.71A51.89,51.89,0,0,0,3.87,114.44V335.56a51.87,51.87,0,0,0,51.84,51.82H394.29a51.87,51.87,0,0,0,51.84-51.82V114.44a51.89,51.89,0,0,0-51.84-51.82m-3.1,34.55L225.05,220.74,58.9,97.17Zm3.1,255.68H55.71a17.31,17.31,0,0,1-17.29-17.29V125L225,263.81,411.58,125V335.56a17.3,17.3,0,0,1-17.29,17.24Z"></path></svg>