<svg xmlns="http://www.w3.org/2000/svg" id="Capa_1" data-name="Capa 1" viewBox="0 0 450 450"><defs><style>.cls-1{fill:#132032;}</style></defs><title>home 2</title><path class="cls-1" d="M436.83,365.51,364,292.64l35.72-35.72a12.66,12.66,0,0,0,0-17.88,13.07,13.07,0,0,0-4.91-3L180.49,164.56a12.64,12.64,0,0,0-16,16L236,394.89a12.65,12.65,0,0,0,20.94,4.85L292.61,364l72.86,72.85a12.63,12.63,0,0,0,17.84,0,0,0,0,0,0,0,0l53.58-53.58a12.62,12.62,0,0,0,0-17.85h0ZM374.3,410.18l-72.86-72.87a12.65,12.65,0,0,0-17.86,0l-30.22,30.22-57-171,171,57-30.22,30.22a12.63,12.63,0,0,0,0,17.86L410,374.44Z"></path><path class="cls-1" d="M173.52,110.5a12.64,12.64,0,0,0,12.63-12.63V22.06a12.63,12.63,0,1,0-25.26,0V97.87a12.63,12.63,0,0,0,12.63,12.63"></path><path class="cls-1" d="M75.25,57.53A12.63,12.63,0,0,0,57.39,75.4L111,129a12.63,12.63,0,0,0,17.87-17.84Z"></path><path class="cls-1" d="M111,218.35,57.39,271.93a12.63,12.63,0,1,0,17.5,18.22l.36-.36,53.58-53.57A12.64,12.64,0,0,0,111,218.35"></path><path class="cls-1" d="M236.07,129l53.58-53.59a12.63,12.63,0,0,0-17.86-17.86L218.2,111.15a12.63,12.63,0,0,0,17.51,18.21c.11-.11.24-.22.36-.35"></path><path class="cls-1" d="M110.35,173.76a12.61,12.61,0,0,0-12.63-12.62H21.87a12.63,12.63,0,0,0,0,25.25H97.69a12.64,12.64,0,0,0,12.63-12.63Z"></path></svg>