<svg xmlns="http://www.w3.org/2000/svg" id="Capa_1" data-name="Capa 1" viewBox="0 0 450 450"><defs><style>.cls-1{fill:#132032;}</style></defs><title>home 2</title><path class="cls-1" d="M230.08,245.15a6.63,6.63,0,0,0-2.47-.1,16.35,16.35,0,0,1-14.5-16.25,7.22,7.22,0,1,0-14.43,0,30.86,30.86,0,0,0,22.68,29.69v7.22a7.21,7.21,0,1,0,14.42,0v-6.77A30.77,30.77,0,0,0,229.47,198a16.38,16.38,0,1,1,16.37-16.38,7.22,7.22,0,0,0,14.43,0,30.87,30.87,0,0,0-24.49-30.15v-6.56a7.21,7.21,0,1,0-14.42,0v7a30.78,30.78,0,0,0,8.11,60.49,16.38,16.38,0,0,1,.61,32.74Z"></path><path class="cls-1" d="M124.92,205.78A104.57,104.57,0,1,0,229.49,101.21,104.56,104.56,0,0,0,124.92,205.78Zm104.57-90.14a90.14,90.14,0,1,1-90.14,90.14,90.14,90.14,0,0,1,90.14-90.14"></path><path class="cls-1" d="M369.57,328.12l-56.49,26.69a46,46,0,0,0-39.24-24.2l-52.13-1.47A55,55,0,0,1,198,323l-5.31-2.73a93.49,93.49,0,0,0-86.7.09l.33-12a7.2,7.2,0,0,0-7-7.35l-57.18-1.56a7.21,7.21,0,0,0-7.36,7L31.33,431.92a7.23,7.23,0,0,0,7,7.35l57.18,1.56h.21a7.2,7.2,0,0,0,7.2-7l.17-6,14.86-8a25.49,25.49,0,0,1,19-2.09l88.71,24.9.47.12a96.12,96.12,0,0,0,59.7-6.77,7,7,0,0,0,.89-.48l128.63-83.18a7.24,7.24,0,0,0,2.37-9.61,36.42,36.42,0,0,0-48.11-14.7Zm-323.67,97L49,314l42.75,1.17L88.65,426.27Zm233.38-1.88a81.91,81.91,0,0,1-50,5.59L140.82,404a39.82,39.82,0,0,0-29.72,3.26l-7.59,4.05,2-73.83a79.24,79.24,0,0,1,80.53-4.29l5.31,2.75a69.73,69.73,0,0,0,29.93,7.73l52.15,1.46a31.66,31.66,0,0,1,30.06,25.22l-77.68-2.15a7.22,7.22,0,0,0-.93,14.42h.53l85.73,2.34h.2a7.2,7.2,0,0,0,7.21-7,45,45,0,0,0-.71-9.35l57.95-27.37.16-.09a22,22,0,0,1,24.91,3.47Z"></path><path class="cls-1" d="M236.66,80.91V12.42a7.22,7.22,0,1,0-14.43,0V80.91a7.22,7.22,0,1,0,14.43,0"></path><path class="cls-1" d="M290.76,80.88V48.54a7.22,7.22,0,1,0-14.43,0V81a7.22,7.22,0,0,0,14.43,0Z"></path><path class="cls-1" d="M182.59,80.88V48.54a7.22,7.22,0,1,0-14.43,0V81a7.22,7.22,0,0,0,14.43,0Z"></path></svg>