<svg xmlns="http://www.w3.org/2000/svg" viewBox="0 0 219.96 240"><defs><style>.cls-1{fill:#132032;}.cls-2{fill:#ebebeb;}</style></defs><title>Recurso 7</title><g id="Capa_2" data-name="Capa 2"><g id="Capa_1-2" data-name="Capa 1"><path class="cls-1" d="M181.31,120.91V61.51a9.47,9.47,0,0,0-7.93-9.08L171.27,52,110,40,48.69,52l-2.11.41a9.47,9.47,0,0,0-7.93,9.08v59.4h-5v11.92H186.36V120.91ZM104.56,80.76a5.44,5.44,0,1,1,5.42,5,5.24,5.24,0,0,1-5.42-5M110,54c4.58,0,8.29,3.45,8.29,7.69s-3.71,7.69-8.29,7.69-8.3-3.44-8.3-7.69S105.4,54,110,54"></path><polygon class="cls-1" points="164.29 212.15 149.15 212.15 164.34 222.2 55.62 222.2 70.81 212.15 55.67 212.15 0 240 28.72 240 37.03 234.5 182.93 234.5 191.24 240 219.96 240 164.29 212.15"></polygon><path class="cls-1" d="M182.13,145H37.83A4.79,4.79,0,0,0,33,151.06L47.2,195.6A7,7,0,0,0,54,200.29H166a7,7,0,0,0,6.76-4.69L187,151.06a4.79,4.79,0,0,0-4.87-6.06M53.55,194.08,40.84,153.22h8.6l12.71,40.86Zm13.75,0L54.59,153.22h8.6L75.9,194.08Zm13.76,0L68.34,153.22h8.6l12.71,40.86Zm48.09,0,12.72-40.86h8.59l-12.71,40.86Zm13.76,0,12.71-40.86h8.59L151.5,194.08Zm22.34,0h-8.59l12.71-40.86H178Z"></path><path class="cls-2" d="M155.48,9.53H140.75a54.44,54.44,0,0,0-61.54,0H64.48c-8.72,0-15.79,6.56-15.79,14.64V52L110,40l61.29,12V24.17c0-8.08-7.07-14.64-15.79-14.64M103.55,33.71l-14.5,3.68H61.56V25.2a7,7,0,0,1,7.27-6.74h34.72ZM110,12.9a5.24,5.24,0,0,1-5.42-5,5.44,5.44,0,0,1,10.84,0,5.24,5.24,0,0,1-5.42,5m48.43,24.49H131.23l-14.82-3.68V18.46h34.73a7,7,0,0,1,7.27,6.74Z"></path></g></g></svg>