<svg xmlns="http://www.w3.org/2000/svg" viewBox="0 0 240 188.54"><defs><style>.cls-1{fill:#132032;}</style></defs><title>Recurso 6</title><g id="Capa_2" data-name="Capa 2"><g id="Capa_1-2" data-name="Capa 1"><path class="cls-1" d="M121.84,58.56l53.3,38.07V51.2a11.28,11.28,0,0,0-10.75-11.8H75.89a11.28,11.28,0,0,0-11,11.53V96.63l53-38.07a3.65,3.65,0,0,1,3.94,0"></path><rect class="cls-1" x="106.87" width="26.26" height="31.51"></rect><path class="cls-1" d="M236.06,167.53a35.13,35.13,0,0,0-21.53,7.09,27.3,27.3,0,0,1-17.33,6,27.65,27.65,0,0,1-12.6-2.88l16.28-53.83-22.85-16-1.58-.79L122.62,69.58V180.39h-2.88l-5-.26V69.58L38.34,123.94l16.8,53.57a23.38,23.38,0,0,1-12.6,3.14c-8.41,0-12.34-2.88-17.07-5.77a33.58,33.58,0,0,0-21.53-7.35,3.94,3.94,0,1,0,0,7.87,26.8,26.8,0,0,1,17.33,6,34.87,34.87,0,0,0,21.27,7.09,33.58,33.58,0,0,0,21.53-7.35c4.72-2.89,8.67-5.78,17.07-5.78a26.8,26.8,0,0,1,17.33,6,34.89,34.89,0,0,0,21.27,7.09,33.6,33.6,0,0,0,21.53-7.35c4.73-2.89,8.66-5.78,17.07-5.78a27.36,27.36,0,0,1,17.33,6,36.21,36.21,0,0,0,43.06,0,27.36,27.36,0,0,1,17.33-6,3.94,3.94,0,1,0,0-7.87"></path></g></g></svg>