<svg xmlns="http://www.w3.org/2000/svg" id="Capa_1" data-name="Capa 1" viewBox="0 0 450 450"><defs><style>.cls-1{fill:#132032;}</style></defs><title>home 2</title><path class="cls-1" d="M352.83,277.64a43.41,43.41,0,0,0-31.43-14.41,44.83,44.83,0,0,0-31.81,14.33L260.2,306.84c-2.46-1.3-4.83-2.45-7.17-3.7-3.35-1.67-6.5-3.25-9.21-4.91a319.53,319.53,0,0,1-76.54-69.76,187.9,187.9,0,0,1-25.11-39.63c7.64-7,14.71-14.21,21.58-21.21,2.61-2.61,5.21-5.28,7.82-7.89a42.72,42.72,0,0,0,0-64.37L146.16,70c-2.88-2.91-5.85-5.88-8.62-8.84-5.56-5.77-11.42-11.73-17.48-17.3A44,44,0,0,0,88.92,30.18,45.46,45.46,0,0,0,57.29,43.85L57.1,44,25.49,75.94A68,68,0,0,0,5.31,119.19,163,163,0,0,0,17.2,188.13,400.81,400.81,0,0,0,88.36,306.81,437.7,437.7,0,0,0,234.11,421a226.79,226.79,0,0,0,81.83,24.15c2,.1,4,.19,5.86.19a70,70,0,0,0,53.66-23.06c.1-.2.29-.28.37-.47a208.58,208.58,0,0,1,16.28-16.83c4-3.82,8.08-7.82,12.09-12a46.32,46.32,0,0,0,14-32.18,44.79,44.79,0,0,0-14.32-31.9Zm33.25,97.93c-.1,0-.1.1,0,0-3.63,3.92-7.39,7.4-11.36,11.35a240.37,240.37,0,0,0-17.92,18.61,44.85,44.85,0,0,1-35,14.76c-1.4,0-2.9,0-4.29-.1A201.16,201.16,0,0,1,245,398.42a412.83,412.83,0,0,1-137.29-107.5,377.73,377.73,0,0,1-67-111.52,132.77,132.77,0,0,1-10.41-58.2A42.5,42.5,0,0,1,43.19,93.58l31.7-31.73A21.22,21.22,0,0,1,89,55.25a19.93,19.93,0,0,1,13.54,6.52l.29.26c5.67,5.32,11.08,10.79,16.73,16.66,2.89,3,5.86,6,8.83,9l25.39,25.4a17.73,17.73,0,0,1,0,28.81c-2.68,2.71-5.29,5.41-8,8-7.82,8-15.26,15.44-23.4,22.7-.18.17-.37.27-.46.46a19,19,0,0,0-4.83,21.12l.28.82a204.28,204.28,0,0,0,30,49l.1.1a341,341,0,0,0,82.59,75.12,125,125,0,0,0,11.43,6.24c3.36,1.67,6.51,3.25,9.21,4.93.37.18.75.47,1.12.65A19,19,0,0,0,275.28,327l31.81-31.8a21,21,0,0,1,14-7,19,19,0,0,1,13.4,6.79l51.42,51.44a18.38,18.38,0,0,1,3.41,25.77,19.37,19.37,0,0,1-3.31,3.34Z"></path><path class="cls-1" d="M242.7,109.51A119.67,119.67,0,0,1,340.17,207a12.49,12.49,0,0,0,12.32,10.42c.71,0,1.43-.09,2.14-.19A12.58,12.58,0,0,0,365,202.73v0A144.73,144.73,0,0,0,247,84.77,12.61,12.61,0,0,0,232.51,95a12.43,12.43,0,0,0,10,14.48l.16,0Z"></path><path class="cls-1" d="M444.71,199.06A238.35,238.35,0,0,0,250.52,4.86a12.54,12.54,0,1,0-4.1,24.74A212.94,212.94,0,0,1,420,203.14a12.49,12.49,0,0,0,12.32,10.42,15.6,15.6,0,0,0,2.14-.19,12.33,12.33,0,0,0,10.29-14.05,1.37,1.37,0,0,0,0-.28Z"></path></svg>