<svg xmlns="http://www.w3.org/2000/svg" viewBox="0 0 240 186.3"><defs><style>.cls-1{fill:#132032;}</style></defs><title>Recurso 2</title><g id="Capa_2" data-name="Capa 2"><g id="Capa_1-2" data-name="Capa 1"><polygon class="cls-1" points="144.47 66.3 140.99 80.69 152.16 82.25 148.54 66.66 144.47 66.3"></polygon><path class="cls-1" d="M164.45,62.17c-.13-.78-.29-1.8-.51-3.15-.28-1.81-.71-4.49-.9-5.19-.75-1-4.33-5.56-5.45-6.64-.75-.06-2.09-.21-3.29-.34.13,2,.27,5.84.37,13.24,3.69.91,7.68,1.78,9.78,2.08"></path><path class="cls-1" d="M226.68,147.48l-13.92-5.31c1,1.52,12.15,19.73,12.91,19.48s5.82-.76,5.82-1.52-4.81-12.65-4.81-12.65"></path><polygon class="cls-1" points="91.61 131.05 67.98 126.04 48.66 135.35 45.19 156.14 68.66 165.39 98.59 158.26 91.61 131.05"></polygon><path class="cls-1" d="M70.7,173l-.48,4.42,20,8.93,25.15-8.24L102,164.11c-4.72,1.33-26.27,7.44-31.29,8.84"></path><polygon class="cls-1" points="35.12 167.31 34.7 177.35 47.43 182.76 62.5 177.35 63.56 171.88 40.59 161.21 35.12 167.31"></polygon><polygon class="cls-1" points="24.28 166.22 18.35 173.79 18.5 179.41 31.44 182.76 28.54 167.75 24.28 166.22"></polygon><path class="cls-1" d="M110.31,161.77l-1,.29c2.21,2.8,7.9,9.19,13.31,15.05l14.16,5.65,10.56-5.42,3.88-16c-10.52-1.47-25.08-3.46-26.46-3.54-1.31.15-10.83,2.89-14.43,3.92"></path><polygon class="cls-1" points="124.79 151.33 126.15 125 97.48 129.97 104.06 156.06 124.79 151.33"></polygon><path class="cls-1" d="M131.65,136.27c-.42,5.69-.94,12.89-1.09,15.41,2.63.8,11.93,2.25,20.9,3.41l-2.51-14Z"></path><path class="cls-1" d="M150.67,127.91l-18.75-4.36c-.13,1.93-.27,4.08-.34,5.38,6.29,1.94,15.32,4.68,17.83,5.3a27.42,27.42,0,0,0,1.26-6.32"></path><path class="cls-1" d="M168.36,156.82l-11,5.38c-.79,3-2.94,11-4.06,14.9L175,182.77l20.65-5.67,1.07-12.8-15.46-8Z"></path><path class="cls-1" d="M163.59,151l-6-11.73-3.33,1.16,2.65,13.08c1.78-.72,4.43-1.7,6.65-2.51"></path><path class="cls-1" d="M182.91,149.27l13.85,7.07L199,137.25l-19.43-9.6-16.45,7.66c4,8.52,5.54,12.26,6.17,14Z"></path><path class="cls-1" d="M204.25,141.72c-1.14,13-2.67,30.87-3,35.49,1.62.16,7.24,2.18,11.47,2.2,3.87,0,6.2-1.95,10.59-2l1.5-10.06-16.08-24.24Z"></path><path class="cls-1" d="M40.48,138.46c.54-1.36,1.57-3.74,3.56-8l.24-.53.54-.23c6.19-2.58,13-5.64,14.94-6.8-.35-2.25-1.71-9.64-2.71-15H55.37l-17,29.2.83.52c.36.23.84.54,1.27.8"></path><path class="cls-1" d="M65,104.35c-.09,2.44,1,9.9,1.42,12.89.15,1.06.26,1.82.33,2.36l24.72,5.05,3.66-.28L99.75,107l-17.08-6c-2.39.46-14.17,2.74-17.72,3.38"></path><path class="cls-1" d="M130,116.72c2.31.48,7,1.46,9.37,2,.22-1.2.49-3.22.69-5.12l-15.63-11.41-18.74,4.55c-1.28,5.09-3,12.13-3.85,15.61l27.85-5.68Z"></path><path class="cls-1" d="M157,123.74c-.42,2.69-1,6.53-1.37,9,4.47-2.06,14.82-7.23,22-10.89l-.47-8c-5-3.89-12.45-9.62-14.68-11.17-2.37,1.53-10.46,7.33-15.85,11.24-.27,2-.57,4.19-.81,5.64l11.35,2.84Z"></path><path class="cls-1" d="M183.12,122.55l18.85,9,3.05.4c-.73-1.54-6.85-11.16-10.93-17.44l-11.27-.31Z"></path><path class="cls-1" d="M167.89,98.18c1,.84,2.68,2.26,5.44,4.65,2.23,1.92,5.21,4.51,6.11,5.16l1.3.12c5.09.49,8.57.73,10.37.74-.78-2.45-2.39-7.35-3.6-11l-16.66-3.27Z"></path><path class="cls-1" d="M143,108.31c.94-.59,2.83-1.67,6.76-3.92,3-1.71,7.24-4.13,9-5.26-1.05-2-3.77-6.9-5.89-10.63L139,87.13,129.4,98l3,2.36c3.1,2.42,8.58,6.69,10.5,7.92"></path><path class="cls-1" d="M101.54,83c.74,4.95,2,13.31,2.47,17l18.35-3.91,9.79-12.07-13.79-5.85Z"></path><path class="cls-1" d="M85.39,84.78l-1.84,9.67,13.24,4.82c-.39-3.54-1.2-10.55-1.85-16.13Z"></path><path class="cls-1" d="M94.54,77.42C94.47,75,94.19,68,94,63.69L88.3,58.77l-7.06,2L75.72,74.19l7.45,5.07a73.38,73.38,0,0,0,11.37-1.84"></path><path class="cls-1" d="M101.07,75.71c6.13-1.46,12.42-3.09,14.61-3.87-.08-.62-.19-1.55-.36-3-.36-3.11-1-8.94-1.51-11.56-2.73,1-9,3.38-13.52,5.16Z"></path><path class="cls-1" d="M121.76,72.87c5.59,2.62,11.46,5.23,14,6.16.67-2.94,2.2-9.67,3.21-14.16l-10.87-6.21Z"></path><path class="cls-1" d="M159,85.44,162.6,93l4.86-6.15,1,.34c4.29,1.48,9.26,3,11.95,3.64a136.13,136.13,0,0,1-3-13.38l-10.79-9.38-11.72-.78Z"></path><path class="cls-1" d="M90.07,51.8l6,6.21,11.26-4L103.8,40.52l-9.16-.47L87.73,52.44l1.49-.4Z"></path><path class="cls-1" d="M112.72,50.53c0,.14.09.28.12.41l4,2.33,3.71,4.6c.06.45,0,.29,0,0,.67-2.08,2.53-1.09,3.25-3.35l3.39-1.67,1-1.52,1.68-12.18-10.5-3.61c-5.77,1.86-8.64,2.73-10.11,3.15.64,2.7,2.69,9.4,3.44,11.85"></path><path class="cls-1" d="M144,43.21c-1-.11-4.2-.6-7.22-1.09-.58,3.06-1.85,9.74-2.37,12.38l7,4.53,7.25.45-.48-13.54c-1.69-1.2-3.55-2.44-4.14-2.73"></path><path class="cls-1" d="M110.16,33.54c-.21-2.12-.6-7.12-.81-9.78l-5.35.1L98.4,34.38l6.2.62a44.89,44.89,0,0,0,5.56-1.46"></path><path class="cls-1" d="M117.69,17.42c-.2-2.11-.6-7.11-.81-9.77l-5.35.1-5.59,10.51,6.19.62a41.17,41.17,0,0,0,5.56-1.46"></path><path class="cls-1" d="M120.85,29l.43.18c3.84,1.63,6.06,2.59,7.34,3.16.27-1.78.61-4.82.9-7.7L125.87,21c-2.67.12-8.32.39-11,.41.13,1.81.79,5.46,1.11,7.2.09.53.18,1,.24,1.33Z"></path><path class="cls-1" d="M134.9,35v.5l11.62,1.34.33.24a54.26,54.26,0,0,1,4.64,3.72c.52,0,1.41-.15,2.33-.31V33.16l-8.69-10.53-9.07.59C135.57,28,134.94,34.34,134.9,35"></path><path class="cls-1" d="M127.21,14.93l4,3.62,1-1.39.89.11c2.91.38,6.21.75,8.28.91-.91-2-2.22-4.75-2.85-6.12L132,11.12Z"></path><path class="cls-1" d="M124,7.2c.19.89.42,1.88.63,2.72,1-.87,2.51-2.16,4.87-4.14l.47-.39,3.62.26c-1.27-2.05-2.49-3.93-3-4.63-1.24-.17-3.82-.61-6.15-1l-2.92,1.73-7,1.32L114,4.58l9.83,1.61Z"></path><path class="cls-1" d="M64.42,98.38l12.75-2.75c.68-3.82,1.59-9,1.85-10.76-1.17-1.13-5.11-4.31-8.86-7.21l-3.71,1.23L56,100.32c.81.18,1.86.45,3.26.86Z"></path><path class="cls-1" d="M36.91,155.91a8,8,0,0,0,1.51-1.35,24.77,24.77,0,0,1,.89-3.29,62.25,62.25,0,0,0,1.77-6.68c-1.64-1-6.69-3.84-10.37-5.9l-5.86,5.15-3.06,15.27,9,2.93Z"></path><polygon class="cls-1" points="235.47 163.67 229.79 165.51 230.54 166.63 228.72 177.31 238.59 177.12 240 169.85 235.47 163.67"></polygon><path class="cls-1" d="M11.75,171.9a100.33,100.33,0,0,1,6.75-8.46c-.84-.52-2-1.18-3.05-1.78l-8.86,1.88L.21,172.69,0,177l14.72,2.39-3.6-6.66Z"></path></g></g></svg>