<svg xmlns="http://www.w3.org/2000/svg" viewBox="0 0 240 114.53"><defs><style>.cls-1{fill:#132032;}</style></defs><title>Recurso 8</title><g id="Capa_2" data-name="Capa 2"><g id="Capa_1-2" data-name="Capa 1"><path class="cls-1" d="M107.72,18.48,68.54,4.75l-2.64,0,.26-.37H51.35L51.48,4a3.15,3.15,0,1,0-6.09-1.63l-.56,2.08L9.78,0,.64,19.24l7.87,12.3a7.38,7.38,0,0,0-.67,3V48.26H3.15a3.15,3.15,0,0,0,0,6.3H7.84v5.3H3.15a3.16,3.16,0,0,0,0,6.31H7.84l11.92,8.67H35.53L24.23,64.41a5.51,5.51,0,0,1-1.78-4.06V49.22l8.94,5.36-.75,2.81a3.16,3.16,0,0,0,2.23,3.86,3.27,3.27,0,0,0,.81.1,3.15,3.15,0,0,0,3-2.33L37,58l14.88,8.92,40.81,7.7a15.78,15.78,0,0,0,3,.27,14.28,14.28,0,0,0,1.46-.08l.72-.09a15.53,15.53,0,0,0,12.72-11.34l2-7.56,5-18.62a15.53,15.53,0,0,0-9.86-18.67"></path><path class="cls-1" d="M237.47,82.48V72.05l-1.88-18.49a1.44,1.44,0,0,0-1.25-1.25l-41.12-5.84a1.43,1.43,0,0,1-1.14-.85L185,25a1.42,1.42,0,0,0-1.31-.87S181.63,23,171.13,23h-28.8a1.43,1.43,0,0,0-1.43,1.43L141.05,96a3.56,3.56,0,0,0,3.55,3.54h33.19a2.88,2.88,0,0,0,2.88-2.88V94.1h0a21.83,21.83,0,0,1,43.32,0h13.36A2.62,2.62,0,0,0,240,91.49V85.08a2.61,2.61,0,0,0-2.53-2.6M186.83,47l-4,1.22H161V29.9a3.28,3.28,0,0,1,3.28-3.28h15.87a3.25,3.25,0,0,1,3.09,2.24l5,15.26A2.27,2.27,0,0,1,186.83,47"></path><path class="cls-1" d="M131.45,13.44h-10.4a5.34,5.34,0,0,0,5.34,5.34h3.23V99.5h6.13V17.73a4.3,4.3,0,0,0-4.3-4.29"></path><path class="cls-1" d="M202.37,79.18A17.68,17.68,0,1,0,220,96.85a17.67,17.67,0,0,0-17.67-17.67"></path><path class="cls-1" d="M27.86,79.18A17.68,17.68,0,1,0,45.54,96.85,17.67,17.67,0,0,0,27.86,79.18"></path><path class="cls-1" d="M76.35,79.18A17.68,17.68,0,1,0,94,96.85,17.68,17.68,0,0,0,76.35,79.18"></path><path class="cls-1" d="M3.55,93.28H6.33a21.82,21.82,0,0,1,43.07,0h5.41a21.82,21.82,0,0,1,43.07,0H104v3.15a3.08,3.08,0,0,0,3.07,3.07h11a6.23,6.23,0,0,0,6.22-6.23v-21H27.86a24.59,24.59,0,0,0-24.31,21"></path></g></g></svg>