<svg xmlns="http://www.w3.org/2000/svg" viewBox="0 0 240 144.22"><defs><style>.cls-1{fill:#132032;}</style></defs><title>Recurso 3</title><g id="Capa_2" data-name="Capa 2"><g id="Capa_1-2" data-name="Capa 1"><path class="cls-1" d="M134.39,52.4a4.18,4.18,0,0,0-4.18-4.2H116V25.48H83.8V48.2h-54a4.19,4.19,0,0,0-4.18,4.2V92.58H0L12.55,140a4.19,4.19,0,0,0,4.2,4.18h206.5a4.18,4.18,0,0,0,4.18-4.18L240,92.58H134.39Z"></path><rect class="cls-1" x="148.83" y="52.29" width="30.84" height="16.11"></rect><rect class="cls-1" x="185.03" y="52.29" width="30.84" height="16.11"></rect><rect class="cls-1" x="185.03" y="72.4" width="30.84" height="16.11"></rect><rect class="cls-1" x="148.83" y="72.4" width="30.84" height="16.11"></rect><path class="cls-1" d="M116,4.31A4.17,4.17,0,0,0,112,0H87.81a4.16,4.16,0,0,0-4,4.31V16.08H116Z"></path></g></g></svg>