<svg xmlns="http://www.w3.org/2000/svg" viewBox="0 0 240 472.93"><defs><style>.cls-1{fill:#ebebeb;}.cls-2{fill:#132032;}</style></defs><title>Recurso 9</title><g id="Capa_2" data-name="Capa 2"><g id="Capa_1-2" data-name="Capa 1"><path class="cls-1" d="M181.51,138.32a14.83,14.83,0,0,1-29.66,0h-9a22.81,22.81,0,0,1-45.61,0H89.05a17.24,17.24,0,0,1-34.48,0H24.1v162H215.89v-162Z"></path><path class="cls-1" d="M88.45,134.81a17.63,17.63,0,0,0-35.25,0c0,.07,0,.13,0,.2H88.41c0-.07,0-.13,0-.2"></path><path class="cls-1" d="M143.31,134.81a23.31,23.31,0,0,0-46.62,0c0,.07,0,.13,0,.2h46.54c0-.07,0-.13,0-.2"></path><path class="cls-1" d="M181.55,138.12a14.87,14.87,0,1,0-29.74,0c0,.07,0,.13,0,.2h29.66c0-.07,0-.13,0-.2"></path><path class="cls-2" d="M24.94,347H0V472.93H24.94V428.55H213.37v44.38H240V347H24.94Zm188.43,54.76H24.94V375H213.37Z"></path><polygon class="cls-2" points="215.32 0 215.32 297.66 24.68 297.66 24.68 0 0 0 0 322.34 1.24 322.34 24.68 322.34 215.32 322.34 240 322.34 240 297.66 240 0 215.32 0"></polygon></g></g></svg>