<svg xmlns="http://www.w3.org/2000/svg" viewBox="0 0 205.3 240"><defs><style>.cls-1{fill:#ebebeb;}.cls-2{fill:#132032;}</style></defs><title>Recurso 4</title><g id="Capa_2" data-name="Capa 2"><g id="Capa_1-2" data-name="Capa 1"><polygon class="cls-1" points="0 153.04 0 154.32 0 239.99 0 240 10.67 240 10.67 221.13 10.67 217.19 10.67 192.27 10.67 188.33 10.67 166.33 24.34 197.55 54.39 197.55 68.07 166.33 68.07 192.16 68.07 217.3 68.07 240 78.74 240 78.74 239.99 78.74 154.32 78.74 141.98 0 141.98 0 153.04"></polygon><rect class="cls-1" y="64.37" width="78.74" height="66.94"></rect><path class="cls-1" d="M78.74,14.34V9.77h-34V0H34V9.77H0V53.7H78.74V14.34ZM17,25H10.68V14.87H17Zm17,0H27.69V14.87H34Zm17,0H44.71V14.87h6.34Zm17,0H61.73V14.87h6.34Z"></path><rect class="cls-1" x="26.59" y="208.02" width="25.65" height="10.67"></rect><polygon class="cls-2" points="205.3 240 166.05 202.97 166.05 224.31 182.68 240 205.3 240"></polygon><polygon class="cls-2" points="87.61 240 118.47 240 118.47 224.16 135.13 224.16 135.13 240 166.04 240 166.04 224.31 87.61 150.34 87.61 240"></polygon><path class="cls-2" d="M87.61,64.37V142l13.67,0L166,203V64.37Zm23.28,38.13H94.22V70.82h16.67Zm24.24,0H118.47V70.82h16.66Zm24.25,0H142.72V70.82h16.66Z"></path></g></g></svg>