<svg xmlns="http://www.w3.org/2000/svg" viewBox="0 0 200 200.19"><defs><style>.cls-1{fill:#132032;}</style></defs><title>Recurso 7</title><g id="Capa_2" data-name="Capa 2"><g id="Capa_1-2" data-name="Capa 1"><path class="cls-1" d="M79.37,34.69a60.75,60.75,0,0,1,15.9-11.45,3,3,0,0,1,2.67,5.38,54.7,54.7,0,1,0,16.25-5.12,3,3,0,0,1-1.07-5.91l.2,0A60.7,60.7,0,1,1,79.37,34.68h0Z"></path><path class="cls-1" d="M9,191.19a10.21,10.21,0,0,1,0-14.41l51.92-51.92a104.72,104.72,0,0,0,9.12,10A3,3,0,1,0,74,130.27a129.42,129.42,0,0,1-10.43-11.65,71.49,71.49,0,1,1,17.93,18,2.83,2.83,0,0,0-1.71-.54,3,3,0,0,0-2.12.88L23.37,191.2A10.21,10.21,0,0,1,9,191.2ZM4.74,172.55a16.2,16.2,0,0,0,22.92,22.9l52.5-52.51a77.63,77.63,0,1,0-22.89-22.89L4.76,172.55Z"></path></g></g></svg>