<svg xmlns="http://www.w3.org/2000/svg" viewBox="0 0 240 154.67"><defs><style>.cls-1{fill:#bac820;}.cls-2{fill:#ebebeb;}</style></defs><title>Recurso 13</title><g id="Capa_2" data-name="Capa 2"><g id="Capa_1-2" data-name="Capa 1"><path class="cls-1" d="M0,106.37v20.57a10,10,0,0,0,10,10H15.4A22.32,22.32,0,0,1,60,137H98.78a30,30,0,0,1,43.31-34.41V84.18h-3.5l-25-76.94A7.24,7.24,0,0,0,106.37,0h-54a7.24,7.24,0,0,0-7.24,7.24V58.78A12.77,12.77,0,0,0,29.82,70.41H14.63A14.63,14.63,0,0,0,0,85v18.64H50v2.69ZM59.93,75.81h-4l-.59-.87V11.38A6.06,6.06,0,0,1,61.4,5.32h39.88a6.06,6.06,0,0,1,6.06,6.06l20.91,64.43Z"></path><path class="cls-2" d="M37.72,119.24a17.75,17.75,0,1,0,12.31,5,17.72,17.72,0,0,0-12.31-5"></path><path class="cls-2" d="M127.64,102.91a25.94,25.94,0,1,0,18,7.3,25.88,25.88,0,0,0-18-7.3"></path><path class="cls-2" d="M145.39,84.18v18.73h2.17A3.41,3.41,0,0,0,151,99.5V87.59a3.42,3.42,0,0,0-3.42-3.41Z"></path><path class="cls-2" d="M171.35,131.17V.74h-15.9V139.68h61.06A36.69,36.69,0,0,0,240,131.17Z"></path><path class="cls-2" d="M146.54,33.41H151V11.55h-4.44a5.64,5.64,0,0,0-5.63,5.63v10.6a5.64,5.64,0,0,0,5.63,5.63"></path></g></g></svg>