<svg xmlns="http://www.w3.org/2000/svg" viewBox="0 0 240 182.34"><defs><style>.cls-1{fill:#ebebeb;}.cls-2{fill:#bac820;}</style></defs><title>Recurso 14</title><g id="Capa_2" data-name="Capa 2"><g id="Capa_1-2" data-name="Capa 1"><path class="cls-1" d="M187.57,0,155.2,32.37l-1-.56a33.8,33.8,0,0,0-39.91,6L82.64,69.44A12.18,12.18,0,0,0,99.86,86.66L115.7,70.83l1.08.69a29.06,29.06,0,0,0,31,0l1.08-.69,36.37,36.36L240,52.43Z"></path><path class="cls-1" d="M134.13,128.45a10.31,10.31,0,0,0-17.59-7.29L83.9,153.8a10.31,10.31,0,1,0,14.58,14.58l4.23-4.24a13.18,13.18,0,0,1,1.38-1.61l17.14-17.14a12.28,12.28,0,0,1,1.61-1.37l8.27-8.28a10.24,10.24,0,0,0,3-7.29"></path><path class="cls-1" d="M67.77,136.3l-.69.68a10.31,10.31,0,1,0,14.58,14.58l24.81-24.82A10.3,10.3,0,1,0,91.9,112.17L71.68,132.39l-2.81,2.88a13.29,13.29,0,0,1-1.1,1"></path><path class="cls-1" d="M106.3,179.32h0a10.31,10.31,0,0,0,14.58,0L138,162.18a10.3,10.3,0,0,0-13.18-15.74l-19.7,19.7a10.29,10.29,0,0,0,1.16,13.18"></path><path class="cls-1" d="M83.49,111.35a10.31,10.31,0,0,0-17.75-6.89l-14,14.39a10.3,10.3,0,0,0,14,15.08l3.73-3.73,11.2-11.5a10.27,10.27,0,0,0,2.85-7.35"></path><path class="cls-2" d="M160.72,114.73l19.75,19.77a8.43,8.43,0,0,0,14.39-6,8.34,8.34,0,0,0-2.47-6l-22.91-22.9c-.3-.31-10.11-10-22.28-22.11a34.39,34.39,0,0,1-31.32-.08L103,90.41A17.47,17.47,0,0,1,78.24,65.7l28.39-28.39-6.71-6.67a18.42,18.42,0,0,0-19.09-4.33A3.76,3.76,0,0,1,77,25.44L52.3.76,0,53.74l53.64,55,7.68-7.9a15.43,15.43,0,0,1,10.87-4.76,16.38,16.38,0,0,1,11.07,4.3,15.37,15.37,0,0,1,4.45,8,15.89,15.89,0,0,1,21.8.17,15.35,15.35,0,0,1,4.2,7.65,15.92,15.92,0,0,1,20.44,1.35,15.55,15.55,0,0,1,0,22l-.37.36a15.53,15.53,0,0,1,8.35,24.88l2.8,2.8a8.64,8.64,0,0,0,11.92,0,8.42,8.42,0,0,0,.65-11.18l-18.25-18.57a3.69,3.69,0,0,1,5.26-5.18l22.71,23.14a8.63,8.63,0,0,0,11.88,0,8.41,8.41,0,0,0,0-11.91L155.46,120a3.72,3.72,0,0,1,5.26-5.26"></path></g></g></svg>