<svg xmlns="http://www.w3.org/2000/svg" viewBox="0 0 240 154.67"><defs><style>.cls-1{fill:#bac820;}.cls-2{fill:#132032;}</style></defs><title>Recurso 5</title><g id="Capa_2" data-name="Capa 2"><g id="Capa_1-2" data-name="Capa 1"><path class="cls-1" d="M0,106.37V127a10,10,0,0,0,10,10h5.38A22.33,22.33,0,0,1,60,137H98.78a30,30,0,0,1,43.31-34.41V84.18h-3.51l-25-76.94A7.24,7.24,0,0,0,106.37,0h-54a7.24,7.24,0,0,0-7.24,7.24V58.78A12.82,12.82,0,0,0,29.81,70.41H14.63A14.63,14.63,0,0,0,0,85v18.64H50v2.69ZM59.93,75.81h-4l-.59-.87V11.38A6.06,6.06,0,0,1,61.4,5.32h39.87a6.06,6.06,0,0,1,6.07,6.06l20.91,64.43Z"></path><path class="cls-2" d="M37.72,119.24a17.73,17.73,0,1,0,12.31,5,17.71,17.71,0,0,0-12.31-5"></path><path class="cls-2" d="M127.64,102.92a25.91,25.91,0,1,0,18,7.29,25.88,25.88,0,0,0-18-7.29"></path><path class="cls-2" d="M145.38,84.18v18.74h2.18A3.42,3.42,0,0,0,151,99.5V87.6a3.42,3.42,0,0,0-3.41-3.42Z"></path><path class="cls-2" d="M171.35,131.18V.74h-15.9V139.68H216.5a36.74,36.74,0,0,0,23.5-8.5Z"></path><path class="cls-2" d="M146.54,33.41H151V11.56h-4.43a5.63,5.63,0,0,0-5.63,5.63V27.78a5.63,5.63,0,0,0,5.63,5.63"></path></g></g></svg>