<svg xmlns="http://www.w3.org/2000/svg" viewBox="0 0 240 472.92"><defs><style>.cls-1{fill:#132032;}</style></defs><title>Recurso 10</title><g id="Capa_2" data-name="Capa 2"><g id="Capa_1-2" data-name="Capa 1"><path class="cls-1" d="M88.45,134.81a17.63,17.63,0,1,0-35.26,0c0,.07.05.12.05.2H88.41c0-.08,0-.13,0-.2"></path><path class="cls-1" d="M143.31,134.81a23.31,23.31,0,1,0-46.62,0c0,.07,0,.12,0,.2h46.54c0-.08,0-.13,0-.2"></path><path class="cls-1" d="M182.81,134.81a15.17,15.17,0,0,0-30.34,0c0,.07,0,.12,0,.2h30.25c0-.08.05-.13.05-.2"></path><path class="cls-1" d="M24.94,347H0v125.9H24.94V428.54H213.38v44.38H240V347H24.94Zm188.44,54.75H24.94V375H213.38Z"></path><path class="cls-1" d="M215.32,0V135H182.76a15.13,15.13,0,0,1-30.25,0h-9.24a23.27,23.27,0,0,1-46.54,0H88.42a17.59,17.59,0,0,1-35.18,0H24.68V0H0V322.33H240V0Z"></path></g></g></svg>