<svg xmlns="http://www.w3.org/2000/svg" id="Capa_1" data-name="Capa 1" viewBox="0 0 450 450"><defs><style>.cls-1{fill:#132032;}</style></defs><title>home 2</title><path class="cls-1" d="M205.73,199.87A70,70,0,0,0,155.4,267v63a7,7,0,0,0,7,7H288.35a7,7,0,0,0,7-7h0V267A70,70,0,0,0,245,199.87a49,49,0,1,0-39.3,0M281.39,267v56h-112V267a56,56,0,0,1,112-.15V267Zm-56-147a35,35,0,1,1-35,35,35,35,0,0,1,35-35"></path><path class="cls-1" d="M75.54,114.2l-.26.59L78.14,116A26.81,26.81,0,0,0,85,118.87l3.09,1.3.24-.6a25.33,25.33,0,0,0,4,.39,27.71,27.71,0,0,0,14.13-4l24.79,24.81,9.89-9.89-24.79-24.81a27.65,27.65,0,0,0,4-14.15,28.35,28.35,0,0,0-.38-4l.6-.26-1.3-3.07a27.48,27.48,0,0,0-2.86-6.91l-1.22-2.85-.6.24a28.48,28.48,0,0,0-2.39-2.84,28.63,28.63,0,0,0-39.58,0,28,28,0,0,0,0,39.55,27,27,0,0,0,2.86,2.39Zm7-32.06a14,14,0,1,1,19.78,19.79,14.27,14.27,0,0,1-19.78,0,14,14,0,0,1,0-19.76s0,0,0,0"></path><path class="cls-1" d="M375.21,335.82l.26-.63-3.91-1.64a25.3,25.3,0,0,0-4.29-1.81l-4.68-2-.36.85a28.73,28.73,0,0,0-18,3.38L319.4,309.11l-9.89,9.9,24.79,24.8A25.62,25.62,0,0,0,330.73,362l-.61.25,1.3,3.07a26.81,26.81,0,0,0,2.85,6.9L335.5,375l.58-.24a31.43,31.43,0,0,0,2.4,2.85A28,28,0,1,0,379,339l-1-1a22,22,0,0,0-2.85-2.34Zm-7,32a14.27,14.27,0,0,1-19.78,0,14,14,0,1,1,19.78,0"></path><path class="cls-1" d="M414.29,197a25.45,25.45,0,0,0-4,.4l-.38-.9-6.1,2.6-.8.31L397,202l.37.91a27.91,27.91,0,0,0-10,15.11h-36v14h36a27.85,27.85,0,0,0,10.08,15.14l-.37.92,6,2.52.8.36,6.08,2.55.37-.89a27.93,27.93,0,1,0,8.15-55.27,28.65,28.65,0,0,0-4.15-.29Zm0,42a14,14,0,1,1,14-14,14,14,0,0,1-14,14Z"></path><path class="cls-1" d="M330.12,87.8l.61.24a28.49,28.49,0,0,0-.38,4,27.59,27.59,0,0,0,3.95,14.16L309.51,131l9.89,9.88,24.79-24.79A27.66,27.66,0,0,0,358.34,120a26.92,26.92,0,0,0,4-.37l.25.59,3.09-1.31a27.29,27.29,0,0,0,6.89-2.84l2.86-1.23-.25-.58A29.67,29.67,0,0,0,378,111.9a28,28,0,0,0,0-39.55h0a27.3,27.3,0,0,0-38.58-1,26.63,26.63,0,0,0-3.39,3.88l-.58-.26-1.23,2.86a27.12,27.12,0,0,0-2.86,6.91Zm18.31-5.66a14,14,0,1,1,20.49,19.1l-.69.7a14.3,14.3,0,0,1-19.8,0,14,14,0,0,1,0-19.8"></path><polygon class="cls-1" points="283.3 68.23 288.73 55.38 300.4 60.3 294.98 73.14 283.3 68.23"></polygon><polygon class="cls-1" points="260.11 58.27 265.53 45.42 277.21 50.34 271.77 63.19 260.11 58.27"></polygon><polygon class="cls-1" points="306.62 78.06 312.05 65.23 323.71 70.12 318.28 82.98 306.62 78.06"></polygon><polygon class="cls-1" points="387.19 271.38 392.11 259.71 404.96 265.14 400.03 276.83 387.19 271.38"></polygon><polygon class="cls-1" points="367.52 318.07 372.44 306.39 385.29 311.83 380.36 323.51 367.52 318.07"></polygon><polygon class="cls-1" points="377.27 294.74 382.19 283.07 395.04 288.5 390.12 300.18 377.27 294.74"></polygon><polygon class="cls-1" points="149.97 389.75 155.4 376.92 167.06 381.81 161.64 394.67 149.97 389.75"></polygon><rect class="cls-1" x="174.87" y="389.31" width="13.94" height="12.67" transform="translate(-253.38 409.28) rotate(-67.11)"></rect><polygon class="cls-1" points="126.86 380.01 132.29 367.16 143.97 372.08 138.53 384.93 126.86 380.01"></polygon><path class="cls-1" d="M120.6,362.21,120,362a28.08,28.08,0,0,0,.39-4,27.63,27.63,0,0,0-4-14.15L141.23,319l-9.89-9.88L106.48,334a28.9,28.9,0,0,0-18-3.37l-.34-.85-4.69,2a26.79,26.79,0,0,0-4.28,1.81l-3.92,1.64.27.63a24.92,24.92,0,0,0-2.86,2.34,28,28,0,0,0,39,40.17l.58-.58a28.64,28.64,0,0,0,2.38-2.86l.6.24,1.23-2.84a27.16,27.16,0,0,0,2.85-6.92Zm-18.31,5.71a14.28,14.28,0,0,1-19.79,0,14,14,0,1,1,19.79,0"></path><polygon class="cls-1" points="55.6 161.5 60.52 149.84 73.37 155.26 68.44 166.94 55.6 161.5"></polygon><polygon class="cls-1" points="45.76 184.84 50.69 173.18 63.53 178.6 58.61 190.29 45.76 184.84"></polygon><polygon class="cls-1" points="65.44 138.14 70.37 126.49 83.22 131.92 78.29 143.59 65.44 138.14"></polygon><polygon class="cls-1" points="45.76 265.07 58.61 259.65 63.53 271.31 50.69 276.75 45.76 265.07"></polygon><rect class="cls-1" x="67.36" y="308.62" width="13.95" height="12.66" transform="translate(-116.65 53.71) rotate(-22.89)"></rect><polygon class="cls-1" points="55.61 288.49 68.46 283.07 73.38 294.73 60.53 300.17 55.61 288.49"></polygon><path class="cls-1" d="M47,250.88l.8-.35,6-2.54-.37-.85a28,28,0,0,0,10-15.16h36V218h-36A27.83,27.83,0,0,0,53.3,202.83l.37-.87-6-2.56-.8-.31-6.08-2.57-.39.89a28,28,0,1,0,0,55.18l.39.88ZM22.47,225a14,14,0,1,1,14,14,14,14,0,0,1-14-14"></path><polygon class="cls-1" points="306.8 372.03 318.46 367.09 323.9 379.95 312.23 384.87 306.8 372.03"></polygon><polygon class="cls-1" points="260.11 391.71 271.78 386.79 277.21 399.65 265.54 404.56 260.11 391.71"></polygon><polygon class="cls-1" points="283.43 381.87 295.09 376.95 300.53 389.8 288.85 394.72 283.43 381.87"></polygon><path class="cls-1" d="M251.25,403.42c-.11-.26-.21-.54-.32-.78l-2.55-6-.88.39a27.73,27.73,0,0,0-15.12-10.08V351h-14v36a27.77,27.77,0,0,0-15.16,10.11l-.88-.39-2.54,6-.33.78-2.57,6.11.88.36a28,28,0,1,0,55.17,0l.9-.36Zm-25.89,24.51a14,14,0,1,1,14-14,14,14,0,0,1-14,14"></path><polygon class="cls-1" points="367.52 131.91 380.36 126.47 385.29 138.15 372.44 143.59 367.52 131.91"></polygon><polygon class="cls-1" points="387.17 178.6 400.02 173.17 404.93 184.83 392.08 190.24 387.17 178.6"></polygon><polygon class="cls-1" points="377.27 155.23 390.12 149.8 395.04 161.47 382.19 166.91 377.27 155.23"></polygon><path class="cls-1" d="M199.45,46.5c.12.27.22.53.35.79l2.54,6,.88-.37a27.65,27.65,0,0,0,15.12,10v36h14v-36a27.62,27.62,0,0,0,15.15-10.09l.9.4,2.54-6c.13-.27.23-.53.34-.82l2.57-6.08-.9-.38a28.53,28.53,0,0,0,.4-4,28,28,0,1,0-56-1.26c0,.42,0,.83,0,1.26a27.1,27.1,0,0,0,.4,4l-.89.38ZM225.35,22a14,14,0,1,1-14,14v0a14,14,0,0,1,14-14"></path><polygon class="cls-1" points="126.87 69.99 138.53 65.06 143.97 77.91 132.31 82.82 126.87 69.99"></polygon><rect class="cls-1" x="175.78" y="47.29" width="12.66" height="13.96" transform="translate(-6.77 75.12) rotate(-22.89)"></rect><rect class="cls-1" x="152.49" y="57.12" width="12.66" height="13.95" transform="translate(-12.42 66.83) rotate(-22.89)"></rect></svg>